<svg width="19" height="23" viewBox="0 0 19 23" fill="currentColor" xmlns="http://www.w3.org/2000/svg">
<path d="M0 0.748578C0 0.748578 6.37688 2.43288 9.12384 0.748578C11.8708 -0.935723 18.2477 0.748578 18.2477 0.748578V6.84806C18.2477 6.84806 12.4594 5.02722 9.12384 6.84806C5.78824 8.6689 0 6.84806 0 6.84806V0.748578Z" />
<path d="M0 8.41595C0 8.41595 6.37688 10.1002 9.12384 8.41595C11.8708 6.73165 18.2477 8.41595 18.2477 8.41595V14.5154C18.2477 14.5154 12.4594 12.6946 9.12384 14.5154C5.78824 16.3363 0 14.5154 0 14.5154V8.41595Z" />
<path d="M0 16.0833C0 16.0833 6.37688 17.7675 9.12384 16.0832V22.1828C5.78824 24.0037 0 22.1828 0 22.1828V16.0833Z" />
</svg>
